<?xml version="1.0" encoding="utf-8"?>
<!-- Generator: Adobe Illustrator 17.0.0, SVG Export Plug-In . SVG Version: 6.00 Build 0)  -->
<!DOCTYPE svg PUBLIC "-//W3C//DTD SVG 1.1//EN" "http://www.w3.org/Graphics/SVG/1.1/DTD/svg11.dtd">
<svg version="1.1" id="Слой_1" xmlns="http://www.w3.org/2000/svg" xmlns:xlink="http://www.w3.org/1999/xlink" x="0px" y="0px"
	 width="501.921px" height="592.372px" viewBox="0 0 501.921 592.372" enable-background="new 0 0 501.921 592.372"
	 xml:space="preserve">
<g>
	<path fill-rule="evenodd" clip-rule="evenodd" fill="#6CC0AD" d="M329.615,517.294c-10.081-4.457-23.113-0.107-30.165,8.224
		c10.042,1.922,20.616,11.297,30.797,4.48c-9.011,6.074-20.353,6.037-30.311,2.865c4.069,3.202,8.657,6.206,13.402,8.342
		c13.841,6.17,35.626,3.07,41.573-10.193c1.295-2.904-3.579-1.378-10.665-4.549C338.13,523.755,332.673,518.649,329.615,517.294
		L329.615,517.294L329.615,517.294z"/>
	<path fill-rule="evenodd" clip-rule="evenodd" fill="#6CC0AD" d="M417.439,558.561c4.525-0.617,9.33-0.868,13.878-0.348
		c13.234,1.52,28.297,13.581,26.87,26.286c-0.309,2.787-3.325-0.576-10.072-1.316c-5.868-0.663-12.256,0.711-15.162,0.349
		c-9.623-1.074-17.546-10.195-19.149-19.636c8.486,2.994,20.639,0.682,25.318,10.362
		C434.987,565.633,426.407,560.599,417.439,558.561L417.439,558.561z"/>
	<path fill-rule="evenodd" clip-rule="evenodd" fill="#6CC0AD" d="M40.762,558.946c-4.522-0.589-9.335-0.827-13.852-0.309
		c-13.201,1.554-28.301,13.644-26.808,26.321c0.306,2.798,3.292-0.571,10.024-1.334c5.886-0.672,12.25,0.696,15.193,0.36
		c9.588-1.128,17.501-10.236,19.115-19.721c-8.47,3.047-20.64,0.747-25.286,10.422C23.245,566.091,31.821,561.003,40.762,558.946
		L40.762,558.946L40.762,558.946z"/>
	<path fill-rule="evenodd" clip-rule="evenodd" fill="#6CC0AD" d="M482.705,558.387c-7.093-5.113-17.566-4.454-25.112,0.082
		c7.381,4.495,13.773,13.938,23.38,10.886c-8.412,2.68-6.928,2.845,0,0c-7.464,3.052-15.669,2.021-22.844-1.114
		c1.814,2.186,3.794,4.247,5.897,6.062c5.979,5.072,15.051,8.041,23.215,7.711c5.979-0.536,11.422-2.845,14.68-7.258
		c-0.495-1.196-4.124-1.856-8.206-5.32c-1.196-1.031-2.35-2.185-3.381-3.381C487.117,563.005,484.478,559.664,482.705,558.387
		L482.705,558.387L482.705,558.387z"/>
	<path fill-rule="evenodd" clip-rule="evenodd" fill="#6CC0AD" d="M196.129,529.099c-2.876-3.547-6.238-6.979-9.903-9.715
		c-10.721-7.9-29.982-9.323-37.577,0.912c-1.658,2.239,2.822,1.898,8.296,5.912c4.736,3.492,8.429,8.88,10.821,10.609
		c7.778,5.768,19.79,4.509,27.41-1.35c-8.254-3.551-15.579-13.559-25.592-9.639C178.465,522.318,188.21,524.48,196.129,529.099
		L196.129,529.099z"/>
	<path fill-rule="evenodd" clip-rule="evenodd" fill="#6CC0AD" d="M36.848,547.408c4.99,3.175,9.072,8.288,11.546,9.855
		c8.165,5.155,20.04,3.093,27.257-3.258c-8.495-2.969-16.453-12.453-26.184-7.835c8.618-4.124,18.473-2.639,26.679,1.402
		c-3.134-3.299-6.68-6.515-10.556-8.989c-11.216-7.134-30.555-7.258-37.401,3.505C26.705,544.439,31.117,543.779,36.848,547.408
		L36.848,547.408L36.848,547.408z"/>
	<path fill-rule="evenodd" clip-rule="evenodd" fill="#6CC0AD" d="M401.429,546.969c-9.566,6.455-21.664,6.506-32.235,3.214
		c4.369,3.38,9.234,6.557,14.299,8.806c14.77,6.474,37.921,3.057,44.163-11.082c0.18-0.431,0.246-0.814,0.175-1.097l-0.094-0.229
		c-0.807-1.318-5.343-0.753-11.43-3.43c-6.532-2.896-12.379-8.255-15.638-9.684c-10.705-4.708-24.596-0.002-32.052,8.887
		C379.34,544.382,390.599,554.254,401.429,546.969L401.429,546.969z"/>
	<path fill-rule="evenodd" clip-rule="evenodd" fill="#6CC0AD" d="M409.111,574.353c-4.519-5.66-7.321-13.249-9.602-16.059
		c-7.415-9.289-21.984-11.705-32.715-7.343c8.662,6.921,14.24,21.065,27.241,19.719c-11.507,1.222-22.344-4.457-30.324-12.496
		c2.362,5.086,5.257,10.244,8.812,14.652c10.234,12.831,32.549,20.797,44.562,11.178
		C419.722,581.877,414.367,580.879,409.111,574.353L409.111,574.353L409.111,574.353z"/>
	<path fill-rule="evenodd" clip-rule="evenodd" fill="#6CC0AD" d="M153.826,535.639c-6.181-3.337-12.888-6.225-19.683-7.806
		c-19.787-4.61-48.026,6.601-52.891,27.494c-1.037,4.606,5.082,0.897,15.194,3.242c8.753,2.029,17.183,7.602,21.514,8.612
		c14.351,3.346,30.718-6.934,38.176-21.093c-13.813,0.3-29.935-9.849-41.89,3.098C124.822,537.663,139.906,534.169,153.826,535.639
		L153.826,535.639z"/>
	<path fill-rule="evenodd" clip-rule="evenodd" fill="#6CC0AD" d="M165.797,543.624c-20.275,1.19-44.231,19.902-42.984,41.32
		c0.284,4.677,5.129-0.576,15.46-1.159c9.005-0.521,18.624,2.426,23.1,2.203c14.713-0.895,27.498-15.38,30.686-31.04
		c-13.165,4.183-31.512-1.019-39.328,14.758c6.896-14.012,20.372-21.601,34.164-24.107
		C180.039,544.11,172.758,543.227,165.797,543.624L165.797,543.624L165.797,543.624z"/>
	<path fill-rule="evenodd" clip-rule="evenodd" fill="#045C71" d="M246.999,16.453c-12,0-21.772,9.773-21.772,21.772
		c0,12.041,9.773,21.772,21.772,21.772c11.999,0,21.772-9.732,21.772-21.772C268.771,26.225,258.998,16.453,246.999,16.453
		L246.999,16.453z"/>
	<path fill-rule="evenodd" clip-rule="evenodd" fill="#045C71" d="M356.768,188.198c0,9.237,7.464,16.7,16.7,16.7
		s16.7-7.464,16.7-16.7s-7.464-16.7-16.7-16.7S356.768,178.961,356.768,188.198L356.768,188.198z"/>
	<path fill-rule="evenodd" clip-rule="evenodd" fill="#045C71" d="M121.231,227.331c8.825,0,16.041-7.175,16.041-16.041
		c0-8.866-7.216-16.041-16.041-16.041c-8.866,0-16.041,7.175-16.041,16.041C105.19,220.156,112.365,227.331,121.231,227.331
		L121.231,227.331z"/>
	<path fill-rule="evenodd" clip-rule="evenodd" fill="#045C71" d="M305.223,570.328c-35.545-54.225-29.896-201.188-26.927-217.6
		C293.842,267,366.334,231.289,392.56,230.052c24.37-1.155,40.617,3.629,56.369,10.35c25.277,10.845-19.546-21.36-59.791-21.36
		c-91.295,0-43.792,42.349-43.792-48.617c0-30.06-9.154-60.327-27.751-84.615c7.835,18.803,15.298,39.091,13.938,59.585
		c-3.134,47.503-63.668,195.415-56.575,12.7c2.433-62.43,19.875-122.593,85.564-148.53c-53.606,2.351-98.924,52.41-113.191,101.274
		C228.237,61.977,188.898,29.813,148.405,0c58.637,74.1,96.12,109.15,96.285,214.919c0.247,150.345-64.534,47.05-64.534-23.174
		c0-26.638,6.557-53.606,18.309-76.12c-21.649,18.102-41.978,48.039-41.689,87.048c0.701,92.821,42.06,29.813-70.554,38.39
		c-158.386,12,121.067-13.195,130.51,117.727l-15.958,211.538H305.223L305.223,570.328z"/>
	<path fill-rule="evenodd" clip-rule="evenodd" fill="#6CC0AD" d="M79.696,567.694c-12.654-4.097-31.371,0.674-35.3,12.778
		c-0.884,2.668,3.247,0.884,9.722,2.984c5.588,1.833,10.827,5.716,13.618,6.591c9.225,2.978,20.195-2.024,25.579-9.975
		c-8.981-0.721-19.086-7.894-27.317-1.022c7.291-6.144,17.224-7.144,26.199-5.347C88.307,571.336,84.056,569.119,79.696,567.694
		L79.696,567.694z"/>
	<path fill-rule="evenodd" clip-rule="evenodd" fill="#6CC0AD" d="M329.882,547.844c19.715,1.285,42.961,18.061,41.745,36.967
		c-0.29,4.123-4.961-0.562-15.049-1.214c-8.706-0.597-18.051,1.936-22.414,1.655c-14.323-0.908-26.737-13.849-29.796-27.717
		c12.75,3.855,30.581-0.507,38.231,13.485c-6.749-12.461-19.825-19.319-33.225-21.65
		C316.029,548.135,323.107,547.414,329.882,547.844L329.882,547.844L329.882,547.844z"/>
	<path fill-rule="evenodd" clip-rule="evenodd" fill="#6CC0AD" d="M227.434,572.619c-3.217-2.091-6.76-4.041-10.371-5.289
		c-10.609-3.611-26.433,0.086-29.947,10.252c-0.732,2.204,2.745,0.765,8.118,2.648c4.713,1.614,9.05,4.96,11.407,5.767
		c7.697,2.641,17.016-1.412,21.653-8.001c-7.509-0.786-15.917-6.957-22.965-1.313C211.573,571.624,219.916,570.903,227.434,572.619
		L227.434,572.619z"/>
	<path fill-rule="evenodd" clip-rule="evenodd" fill="#6CC0AD" d="M259.097,582.566c-7.292,6.36-19.364,6.081-27.436,0.939
		c7.949-4.241,14.385-14.806,24.663-11.756c-9.117-2.742-18.655,0.217-26.141,5.453c2.569-3.749,5.633-7.444,9.074-10.482
		c10.02-8.766,29.083-11.764,37.495-2.195c1.86,2.115-2.652,2.116-7.75,6.567C264.574,574.981,261.29,580.657,259.097,582.566
		L259.097,582.566z"/>
	<path fill-rule="evenodd" clip-rule="evenodd" fill="#6CC0AD" d="M312.452,587.197c-0.658-4.476-1.779-9.135-3.523-13.382
		c-5.175-12.264-21.02-23.311-32.77-18.398c-2.593,1.088,1.46,3.051,4.085,9.303c2.306,5.443,2.757,11.968,3.901,14.671
		c3.787,8.899,14.721,13.931,24.248,12.832c-5.288-7.303-6.462-19.614-17.059-21.347
		C300.749,572.377,308.026,579.224,312.452,587.197L312.452,587.197L312.452,587.197z"/>
	<path fill-rule="evenodd" clip-rule="evenodd" fill="#6CC0AD" d="M468.844,532.736c-5.844,0.436-12.201-1.199-15.113-0.924
		c-9.638,0.748-17.92,9.547-19.854,18.917c8.585-2.695,20.624,0.102,25.639-9.424c-4.406,8.443-13.165,13.181-22.196,14.858
		c4.489,0.779,9.272,1.211,13.833,0.883c13.26-1.03,28.789-12.554,27.826-25.264C478.757,529.009,475.617,532.196,468.844,532.736
		L468.844,532.736z"/>
</g>
</svg>
