<?xml version="1.0" encoding="UTF-8"?>
<!DOCTYPE svg PUBLIC "-//W3C//DTD SVG 1.1//EN" "http://www.w3.org/Graphics/SVG/1.1/DTD/svg11.dtd">
<!-- Creator: CorelDRAW X8 -->
<svg xmlns="http://www.w3.org/2000/svg" xml:space="preserve" width="100%" height="100%" version="1.1" style="shape-rendering:geometricPrecision; text-rendering:geometricPrecision; image-rendering:optimizeQuality; fill-rule:evenodd; clip-rule:evenodd"
viewBox="0 0 9853 4840"
 xmlns:xlink="http://www.w3.org/1999/xlink">
 <defs>
  <style type="text/css">
   <![CDATA[
    .fil0 {fill:#6CC0AD}
    .fil1 {fill:#FEFEFE;fill-rule:nonzero}
   ]]>
  </style>
 </defs>
 <g id="Layer_x0020_1">
  <metadata id="CorelCorpID_0Corel-Layer"/>
  <rect class="fil0" width="9853" height="4840"/>
  <g id="_1223559679952">
   <path class="fil1" d="M9163 2713c210,-709 -135,-1761 -884,-1984 -165,-49 -44,182 -152,545 -93,314 -314,607 -360,764 -153,515 185,1133 683,1435 20,-502 424,-1067 -20,-1531 396,411 489,967 405,1470 135,-217 256,-455 328,-699z"/>
   <path class="fil1" d="M7904 3268c-180,-182 -384,-353 -605,-480 -642,-367 -1745,-271 -2134,407 -84,150 168,85 496,272 284,163 520,446 662,526 466,267 1145,79 1553,-337 -485,-134 -942,-657 -1495,-331 490,-291 1053,-255 1523,-57z"/>
   <path class="fil1" d="M7278 1702c-242,-492 -920,-911 -1392,-680 -104,51 68,121 190,374 107,217 142,485 196,593 175,358 638,541 1028,472 -235,-287 -312,-792 -752,-840 391,41 706,306 909,624 -40,-183 -96,-373 -179,-543z"/>
  </g>
 </g>
</svg>
