<svg xmlns="http://www.w3.org/2000/svg" xml:space="preserve" width="100%" height="100%" version="1.1" style="shape-rendering:geometricPrecision; text-rendering:geometricPrecision; image-rendering:optimizeQuality; fill-rule:evenodd; clip-rule:evenodd"
viewBox="0 0 7000 4702" xmlns:xlink="http://www.w3.org/1999/xlink">
 <defs>
  <style>
    .fil0 {fill:#6CC0AD}
    .fil1 {fill:#FEFEFE;fill-rule:nonzero}
  </style>
 </defs>
  <rect class="fil0" width="7000" height="4702"/>
   <path class="fil1" d="M5333 2741c210,-710 -135,-1762 -885,-1984 -164,-49 -44,182 -151,544 -94,314 -314,608 -361,765 -152,515 186,1133 684,1435 19,-503 424,-1067 -20,-1531 395,411 489,966 404,1470 136,-217 256,-455 329,-699z"/>
   <path class="fil1" d="M4074 3296c-180,-182 -384,-354 -605,-480 -643,-367 -1746,-271 -2134,407 -85,149 167,85 496,272 284,163 520,445 661,526 467,267 1145,78 1554,-337 -485,-135 -942,-657 -1495,-331 490,-291 1052,-255 1523,-57z"/>
   <path class="fil1" d="M3447 1730c-242,-493 -919,-911 -1391,-680 -104,51 67,121 190,373 107,218 141,485 195,594 175,358 639,540 1028,472 -235,-288 -311,-792 -752,-840 391,41 706,306 909,623 -39,-183 -96,-372 -179,-542z"/>
</svg>
