<?xml version="1.0" encoding="UTF-8"?>
<!DOCTYPE svg PUBLIC "-//W3C//DTD SVG 1.1//EN" "http://www.w3.org/Graphics/SVG/1.1/DTD/svg11.dtd">
<!-- Creator: CorelDRAW X8 -->
<svg xmlns="http://www.w3.org/2000/svg" xml:space="preserve" width="100%" height="100%" version="1.1" style="shape-rendering:geometricPrecision; text-rendering:geometricPrecision; image-rendering:optimizeQuality; fill-rule:evenodd; clip-rule:evenodd"
viewBox="0 0 3500 3500"
 xmlns:xlink="http://www.w3.org/1999/xlink">
 <defs>
  <style type="text/css">
   <![CDATA[
    .fil0 {fill:#FEFEFE}
    .fil1 {fill:#045C71;fill-rule:nonzero}
   ]]>
  </style>
 </defs>
 <g id="Layer_x0020_1">
  <metadata id="CorelCorpID_0Corel-Layer"/>
  <g id="_2283816796080">
   <circle class="fil0" cx="1750" cy="1750" r="1750"/>
   <path class="fil1" d="M1872 1742c0,-63 -51,-114 -114,-114 -64,0 -115,51 -115,114 0,63 51,115 115,115 63,0 114,-52 114,-115zm459 0c0,-63 -51,-114 -114,-114 -63,0 -115,51 -115,114 0,63 52,115 115,115 63,0 114,-52 114,-115zm-916 0c0,-63 -52,-114 -115,-114 -63,0 -114,51 -114,114 0,63 51,115 114,115 63,0 115,-52 115,-115zm335 -838c464,0 839,376 839,839 0,463 -375,839 -839,839 -141,0 -275,-35 -391,-97 -39,76 -119,129 -210,129 -130,0 -235,-106 -235,-236 0,-87 47,-163 117,-203 -76,-126 -119,-274 -119,-432 0,-463 375,-839 838,-839z"/>
   <path class="fil1" d="M909 2723c0,-63 -51,-115 -114,-115 -63,0 -115,52 -115,115 0,63 52,114 115,114 63,0 114,-51 114,-114z"/>
  </g>
 </g>
</svg>
