<?xml version="1.0" encoding="UTF-8"?>
<!DOCTYPE svg PUBLIC "-//W3C//DTD SVG 1.1//EN" "http://www.w3.org/Graphics/SVG/1.1/DTD/svg11.dtd">
<!-- Creator: CorelDRAW X8 -->
<svg xmlns="http://www.w3.org/2000/svg" xml:space="preserve" width="100%" height="100%" version="1.1" style="shape-rendering:geometricPrecision; text-rendering:geometricPrecision; image-rendering:optimizeQuality; fill-rule:evenodd; clip-rule:evenodd"
viewBox="0 0 3500 3500"
 xmlns:xlink="http://www.w3.org/1999/xlink">
 <defs>
  <style type="text/css">
   <![CDATA[
    .fil1 {fill:#FEFEFE}
    .fil0 {fill:#045C71}
   ]]>
  </style>
 </defs>
 <g id="Layer_x0020_1">
  <metadata id="CorelCorpID_0Corel-Layer"/>
  <g id="_2283762794592">
   <circle class="fil0" cx="1750" cy="1750" r="1750"/>
   <path class="fil1" d="M2551 1696c0,-138 -113,-252 -251,-252 -138,0 -251,114 -251,252 0,115 77,212 183,242l0 267c0,188 -152,339 -339,339 -188,0 -340,-151 -340,-339l0 -383c272,-29 482,-260 482,-538l0 -324c0,-38 -29,-68 -68,-68l-147 0 0 -4c0,-39 -29,-68 -68,-68 -38,0 -68,29 -68,68l0 145c0,38 30,67 68,67 39,0 68,-29 68,-67l0 -5 79 0 0 256c0,224 -183,407 -407,407 -224,0 -407,-183 -407,-407l0 -256 74 0 0 5c0,38 30,67 68,67 39,0 68,-29 68,-67l0 -145c0,-39 -29,-68 -68,-68 -38,0 -68,29 -68,68l0 4 -142 0c-39,0 -68,30 -68,68l0 324c0,274 203,502 468,538l0 383c0,262 213,475 476,475 262,0 475,-213 475,-475l0 -267c106,-30 183,-127 183,-242zm-251 115c-63,0 -115,-52 -115,-115 0,-64 52,-116 115,-116 63,0 115,52 115,116 0,63 -52,115 -115,115z"/>
  </g>
 </g>
</svg>
