<svg class="el-tree" xmlns="http://www.w3.org/2000/svg" xmlns:xlink="http://www.w3.org/1999/xlink" x="0px" y="0px" viewBox="0 46.4 595.3 711.5" enable-background="new 0 46.4 595.3 711.5" xml:space="preserve">
<g id="Layer_x0020_1">
	<path class="leaves" d="M215,186.1c-3.4-16.4,3.1-38.8-13.8-49.4c7.3,4.5,8.2,5.2,0,0c1.9,1.2,3.7,2.5,5.4,3.9
		c11.7,9.9,17.7,24.9,19.4,39.8c2.1-8.2,3.5-16.9,3.5-25.4c-0.2-25-19.4-55.5-43.3-55.5c-1.5,0-2.1,0.5-2.2,1.6
		c0.2,2.9,2.6,8.5,2.6,16.7c0,0.2,0,0.3,0,0.5c0,0.1,0,0.2,0,0.3c0,10.8-3.8,22.1-3.9,27.8C182.7,164.6,197.9,181.1,215,186.1z
		 M384.5,182.5c12.3-11.7,35-16.9,35.6-37.1c-0.5,17.9-11.4,33.2-25.2,43.5c8.2-2.4,16.7-5.6,24.1-10c21.6-12.7,38.3-44.9,26.1-65.7
		c-2.6-4.5-5.3,3.5-16.3,10c-9.6,5.6-21.6,8.1-26.4,10.9C386.8,143.3,380.1,165.1,384.5,182.5L384.5,182.5z M255.5,152.9
		c-4.2,7.7-11.3,14.3-13.3,18.1c-6.8,12.6-2.4,30,7.7,40c3.5-12.9,16.7-25.6,8.8-39.5c7,12.3,5.9,27,0.8,39.6
		c4.6-5,8.9-10.6,12.1-16.6c9.4-17.4,7.5-46-9.2-55C258.8,137.6,260.3,144,255.5,152.9L255.5,152.9z M128.5,238.8
		c-0.7,4.1,4.9,0.7,14.9,2.4c8.6,1.6,17.1,6.2,21.4,7c14.1,2.5,29.2-7.1,35.5-19.8c-13.3,0.7-29.6-7.8-40.3,4
		c9.5-10.5,23.8-14.1,37.4-13.2c-6.2-2.8-12.9-5.2-19.5-6.4C158.4,209.4,131.8,220.2,128.5,238.8L128.5,238.8L128.5,238.8z
		 M112.8,167.4c5.2,7,8.1,16.3,10.7,19.8c8.5,11.5,26.1,15.1,39.4,10.2c-10.1-8.7-16-26.1-32-24.9c14.1-1.1,26.9,6.3,36.1,16.3
		c-2.6-6.3-5.7-12.6-9.8-18.1c-11.7-16-38.3-26.5-53.6-15.3C100.4,157.8,106.9,159.3,112.8,167.4L112.8,167.4z M47.1,283.9
		c-0.6,14.7,12.6,28.9,27.9,33.5c-2.9-13.5,4-31.3-10.9-40.6c13.3,8.2,19.5,22.4,20.7,36.3c2.1-6.7,3.8-13.8,4-20.8
		c0.8-20.3-15.5-45.9-36.9-46.8c-4.7-0.2,0,5.1-0.3,15.5C51.1,270,47.2,279.4,47.1,283.9C47.1,283.9,47.1,283.9,47.1,283.9z
		 M9.3,341.8c4.5,7.8,6.3,17.7,8.6,21.6c7.5,12.7,26.2,17.4,41.6,13.1c-9.7-9.8-13.5-28.5-31.1-28.2c15.6-0.2,28.5,8.3,37,19.4
		c-1.8-6.8-4.3-13.6-7.8-19.7c-10.3-17.5-37.9-30.2-56.4-19.4C-2.8,331,4.1,332.9,9.3,341.8C9.3,341.8,9.3,341.8,9.3,341.8z
		 M78.2,414.6c-4.5-5.4-9.7-10.6-15.4-14.5c-16.7-11.5-47.1-11.5-59.3,6.1c-2.7,3.9,4.4,2.7,12.9,8.6c7.4,5.1,13.2,13.4,16.9,15.9
		c12.1,8.4,31.1,4.8,43.3-5.6c-12.9-4.8-24.2-20.2-40.1-12.5C50.5,405.8,65.8,408.1,78.2,414.6z M130.1,417.8
		c1.4-6.8,2.4-14.1,1.9-21.1c-1.2-20.3-19.9-44.2-41.3-43c-4.7,0.3,0.6,5.1,1.2,15.5c0.5,9-2.4,18.6-2.1,23.1
		c0.9,14.7,15.3,27.5,31,30.7c-4.2-13.2,1-31.5-14.8-39.3C120,390.5,127.6,404,130.1,417.8L130.1,417.8z M118.2,465.2
		c-8.6,18.4-3.6,48.4,15.8,57.5c4.2,2,1.9-4.8,6.4-14.1c3.8-8.2,11-15.2,12.9-19.3c6.2-13.4-0.4-31.5-12.7-41.8
		c-2.6,13.6-15.9,27.2-5.8,41.6c-9-12.7-9.3-28.2-4.9-41.5C125.5,452.9,121.2,458.9,118.2,465.2L118.2,465.2z M93.2,448.6
		c-7,0.5-14.2,1.6-20.8,3.8c-19.2,6.6-37.2,31.1-30.2,51.4c1.6,4.5,4.8-1.9,14.6-5.3c8.5-2.9,18.6-2.7,22.8-4.1
		c13.9-4.8,22.3-22.2,21.2-38.1c-11.5,7.6-30.6,7.5-33.9,24.9C69.7,465.8,80.6,454.8,93.2,448.6z M214.1,312.1
		c4.9-4.7,9.5-10.1,13.1-15.8c10.4-16.8,10.2-45.5-5.9-55.4c-3.5-2.2-2.5,4.4-7.8,12.9c-4.6,7.4-12.1,13.6-14.3,17.3
		c-7.5,12.2-4.2,29.8,5.3,40.4c4.3-12.7,18.2-24.7,11.2-39C221.9,285.1,219.9,299.8,214.1,312.1L214.1,312.1L214.1,312.1z
		 M190.7,350.6c-8.1-10-8.9-27.9-26.3-29.2c15.4,1.2,26.8,10.2,33.5,21.4c-0.8-6.5-2.2-13.2-4.8-19.1c-7.5-17.3-32.7-31.6-52.5-23.1
		c-4.4,1.9,2.1,4.2,5.9,13.1c3.3,7.7,3.5,17.1,5.2,20.9C157.2,347.2,174.9,353.3,190.7,350.6L190.7,350.6z M258.5,335.2
		c-5.4,4.8-12.8,8-15.5,10.5c-8.9,7.9-10.5,22.6-5.5,33.1c6.4-9,20.2-15.4,18.2-28.3c1.9,11.4-3.2,22.6-10.8,31
		c4.9-2.6,9.9-5.8,14.1-9.6c12.2-10.9,19-33.6,8.7-45.1C265.4,324.2,264.7,329.6,258.5,335.2L258.5,335.2z M360.1,203.8
		c-1.4-13.3,6.3-29.9-6.1-40c11,8.9,15.3,23.1,15.1,36.7c2.4-6.3,4.5-13.1,5.3-19.9c2.4-19.6-9.7-45.6-28.5-47.9
		c-4.1-0.5-0.4,5-1.6,15c-1.1,8.7-5.3,17.4-5.9,21.7C336.7,183.6,347.1,198.2,360.1,203.8L360.1,203.8L360.1,203.8z M414.4,263.8
		c8.4-17.9,4.9-46.3-12.3-54.4c-3.8-1.7-1.9,4.6-6.2,13.8c-3.7,7.9-10.4,14.9-12.2,18.8c-6.1,13-0.7,30.1,9.9,39.5
		c2.8-13,15.2-26.6,6.6-40c7.7,11.9,7.4,26.7,3,39.5C407.5,275.8,411.5,269.9,414.4,263.8L414.4,263.8L414.4,263.8z M437.4,272.4
		c-2.7-3.1-3.5,3.5-11.1,10.3c-6.5,5.8-15.4,9.6-18.6,12.5c-10.7,9.6-12.5,27.4-6.3,40.2c7.7-10.9,24.4-18.5,21.7-34.2
		c2.4,13.9-3.6,27.4-12.7,37.6c6-3.2,12-7,17-11.5C442.1,314,450,286.5,437.4,272.4L437.4,272.4z M511.6,264.6
		c8.5-10.2,25.9-16.4,24.5-32.3c1.2,14.1-5.9,27.1-15.8,36.4c6.2-2.6,12.5-5.9,17.9-10c15.8-11.9,25.9-38.7,14.5-53.8
		c-2.5-3.3-3.8,3.2-11.9,9.3c-7,5.3-16.2,8.3-19.7,10.9C509.8,233.7,506.5,251.4,511.6,264.6L511.6,264.6L511.6,264.6z M543.5,363.6
		c9.9-9,27.8-12.9,28.5-28.8c-0.6,14.1-9.4,26-20.4,33.9c6.5-1.8,13.2-4.2,19.1-7.5c17.2-9.7,30.8-34.9,21.5-51.4
		c-2-3.6-4.2,2.6-13,7.6c-7.6,4.3-17.2,6.1-20.9,8.2C545.8,332.7,540.3,349.8,543.5,363.6L543.5,363.6z M577.7,386.2
		c0.2-4.1-5,0-15.1-0.7c-8.7-0.5-17.7-4.2-22.1-4.4c-14.3-0.9-28.3,10.4-33,23.8c13.2-2.3,30.3,4.3,39.6-8.7
		c-8.2,11.5-22,16.7-35.6,17.4c6.4,2,13.4,3.6,20.1,4C551.4,418.9,576.6,405.1,577.7,386.2L577.7,386.2L577.7,386.2z M486.7,399.5
		c5.4-4,10.8-8.7,15.1-14c12.5-15.3,16-43.8,1.4-55.7c-3.3-2.6-3,4-9.4,11.8c-5.5,6.8-13.7,11.9-16.5,15.3c-9.1,11.1-8,29,0,40.7
		c5.9-12,21.2-22.1,16.1-37.2C497.9,373.8,494.1,388.1,486.7,399.5L486.7,399.5L486.7,399.5z M481.4,279.5c3.8,11,0.6,22.8-5.5,32.1
		c4.5-3.3,8.8-7.2,12.4-11.5c10.3-12.6,13.2-36,1.1-45.8c-2.7-2.1-2.5,3.3-7.7,9.7c-4.5,5.6-11.3,9.8-13.6,12.6
		c-7.4,9.2-6.6,23.9,0,33.5C473,300.2,485.6,291.9,481.4,279.5L481.4,279.5z M462.2,441.4c2.7,6.2,6,12.5,10.1,17.9
		c11.9,15.8,38.8,25.9,53.9,14.4c3.3-2.5-3.2-3.8-9.3-11.9c-5.3-7-8.3-16.2-11-19.6c-8.7-11.4-26.3-14.7-39.5-9.6
		c10.2,8.6,16.4,25.9,32.3,24.5C484.5,458.4,471.6,451.2,462.2,441.4L462.2,441.4z M484.2,163.9c-4.2,13.5-15.6,22.8-28.3,27.7
		c6.8-0.1,13.8-0.8,20.4-2.5c19.1-5.1,38.6-26.1,33.7-44.4c-1.1-4-4.8,1.5-14.5,4.1c-8.5,2.3-18.1,1.6-22.3,2.8
		c-13.9,3.7-23.5,18.8-23.8,33C461.2,178.3,479.5,179.1,484.2,163.9L484.2,163.9L484.2,163.9z M435.5,263.9c6-3.1,12-6.9,17.1-11.4
		c14.8-13.2,22.7-40.7,10.1-54.8c-2.8-3.1-3.6,3.5-11.1,10.2c-6.5,5.8-15.5,9.6-18.7,12.5c-10.7,9.5-12.5,27.4-6.4,40.2
		c7.7-10.9,24.5-18.4,21.8-34.1C450.7,240.4,444.6,253.8,435.5,263.9L435.5,263.9L435.5,263.9z M306.7,150.4
		c3.2-11.6,15-23.1,8-35.7c6.3,11.1,5.3,24.4,0.7,35.8c4.1-4.5,8-9.6,10.9-15c8.5-15.7,6.7-41.4-8.3-49.5c-3.3-1.8-1.9,4-6.3,12
		c-3.7,6.9-10.1,12.9-12,16.4C293.6,125.8,297.6,141.4,306.7,150.4C306.7,150.4,306.7,150.4,306.7,150.4z M403.4,92.7
		c0.9,12.7-5.7,24.2-14.8,32.5c5.6-2.3,11.3-5.2,16.3-8.8c14.4-10.5,24-34.5,13.9-48.2c-2.2-3-3.5,2.8-10.8,8.2
		c-6.4,4.7-14.7,7.3-17.9,9.6c-10.4,7.6-13.6,23.4-9.3,35.5C388.7,112.3,404.4,107,403.4,92.7L403.4,92.7z M290.6,70.9
		c2.4,11.3-2.2,22.5-9.2,31.1c4.8-2.8,9.6-6.1,13.6-9.9c11.6-11.2,17.2-33.9,6.5-45.1c-0.3-0.3-0.7-0.5-0.9-0.6h-0.2
		c-1.5,0.2-2.7,4.7-7.5,9.3c-5.2,4.9-12.3,8.3-14.9,10.8c-8.4,8.1-9.3,22.8-3.9,33C279.8,90.4,293.2,83.7,290.6,70.9L290.6,70.9z
		 M230.2,110.3c3.6,11.1,16.4,18.3,28,18c-5.6-9.4-5.8-24.3-18.4-27.5c11.2,2.8,19.3,11.8,23.9,21.9c-0.4-5.5-1.2-11.3-3-16.5
		c-5-15.3-23-30.3-37.7-25.5c-3.2,1.1,1.4,3.8,4,11.7C229.2,99,229.1,107,230.2,110.3L230.2,110.3L230.2,110.3z M70,204.2
		c4.7,5.4,7.6,12.8,9.9,15.5c7.6,8.9,22.1,10.6,32.7,5.9c-8.8-6.4-14.7-20.2-27.6-18.3c11.4-1.7,22.3,3.4,30.4,11
		c-2.5-4.9-5.5-9.9-9.1-14.1C96,191.8,73.6,184.9,61.9,195C59.3,197.1,64.7,197.9,70,204.2L70,204.2L70,204.2z M346.1,84.8
		c3,9.2,13.5,15.1,23.1,14.8c-4.7-7.7-4.8-20.1-15.2-22.7c9.2,2.3,15.9,9.7,19.7,18.1c-0.3-4.5-1-9.3-2.4-13.6
		c-4.1-12.7-19-25-31.1-21.1c-2.7,0.9,1.2,3.2,3.3,9.6C345.3,75.5,345.2,82.1,346.1,84.8L346.1,84.8z M129.5,125.8
		c5,3.2,9.1,8.3,11.5,9.9c8.2,5.2,20,3.1,27.3-3.3c-8.5-3-16.5-12.5-26.2-7.8c8.6-4.1,18.5-2.6,26.7,1.4c-3.1-3.3-6.7-6.5-10.6-9
		c-11.2-7.1-30.6-7.3-37.4,3.5C119.3,122.8,123.7,122.1,129.5,125.8L129.5,125.8L129.5,125.8z M324.7,197.4c1.4-3.6,2.5-7.5,3-11.3
		c1.3-11.1-5.7-25.8-16.4-27.1c-2.3-0.2-0.2,2.8-0.9,8.5c-0.6,4.9-2.9,9.9-3.2,12.4c-0.9,8.1,5,16.3,12.4,19.5
		c-0.8-7.5,3.4-17-3.6-22.7C322.3,181.6,324.8,189.6,324.7,197.4L324.7,197.4z M366.7,374.1c-0.7-4.5-1.8-9.2-3.6-13.4
		c-5.2-12.2-21-23.3-32.8-18.3c-2.6,1.1,1.4,3.1,4.1,9.3c2.3,5.4,2.8,12,3.9,14.6c3.8,8.9,14.8,13.9,24.3,12.8
		c-5.3-7.3-6.5-19.6-17.1-21.3C354.9,359.3,362.2,366.1,366.7,374.1L366.7,374.1z M362.6,317.6c1.4-4.3,2.6-8.9,2.9-13.5
		c0.9-13.3-8.2-30.3-20.9-31.3c-2.8-0.2-0.1,3.4-0.6,10.1c-0.4,5.9-3,11.9-3.2,14.8c-0.7,9.6,6.8,19.1,15.8,22.4
		c-1.4-8.9,3.1-20.4-5.5-26.8C358.9,299.1,362.3,308.5,362.6,317.6L362.6,317.6L362.6,317.6z M265.1,442c2.9-3.5,5.6-7.5,7.6-11.6
		c5.7-12,3.4-31.2-8.1-36.7c-2.5-1.2-1.3,3.1-4.2,9.3c-2.5,5.3-7.1,10-8.3,12.7c-4.2,8.7-0.6,20.3,6.6,26.6
		c1.9-8.8,10.3-17.9,4.5-27C268.4,423.4,268.1,433.3,265.1,442z M131.1,323.7c-3.6-12.8-17.9-25.8-30.2-22.4
		c-2.7,0.7,1.1,3.2,2.9,9.8c1.6,5.6,1.2,12.2,2,15c2.6,9.3,12.9,15.7,22.4,15.8c-4.3-7.9-3.9-20.2-14.2-23.3
		c9.1,2.7,15.5,10.4,18.9,18.9C132.9,332.9,132.4,328.1,131.1,323.7L131.1,323.7z M124.1,278.8c7.1,5.1,17.6,4.5,25.1-0.1
		c-7.4-4.5-13.8-13.9-23.4-10.9c8.4-2.7,6.9-2.8,0,0c7.5-3.1,15.7-2,22.8,1.1c-1.8-2.2-3.8-4.2-5.9-6.1c-6-5.1-15.1-8-23.2-7.7
		c-6,0.5-11.4,2.8-14.7,7.3c0.5,1.2,4.1,1.9,8.2,5.3c1.2,1,2.4,2.2,3.4,3.4C119.7,274.1,122.4,277.5,124.1,278.8L124.1,278.8z
		 M172.3,476c-5,12.3-1.6,31.3,10.2,36.1c2.6,1.1,1.1-3.2,3.7-9.5c2.2-5.4,6.5-10.4,7.5-13.1c3.6-9-0.6-20.3-8.1-26.2
		c-1.4,8.9-9.2,18.5-3,27.2c-5.6-7.7-5.9-17.7-3.5-26.5C176.5,467.6,174,471.7,172.3,476L172.3,476z M455,362.9
		c3-3.4,5.9-7.3,8-11.3c6.1-11.8,4.4-31.1-6.9-36.9c-2.5-1.2-1.4,3.1-4.5,9.1c-2.7,5.2-7.4,9.8-8.7,12.4c-4.4,8.6-1.2,20.2,5.7,26.8
		c2.2-8.7,10.9-17.5,5.4-26.8C458.8,344.4,458.2,354.3,455,362.9L455,362.9z M394.8,448.4c-3.6,2.8-7.2,6-10.1,9.5
		c-8.3,10.4-10.5,29.6-0.5,37.6c2.2,1.8,1.9-2.7,6.2-8c3.7-4.6,9.2-8.1,11.1-10.4c6-7.5,5.2-19.6-0.3-27.5
		c-3.9,8.1-14.1,15.1-10.6,25.2C387.4,465.8,389.9,456.1,394.8,448.4L394.8,448.4L394.8,448.4z M534.9,324.2c3.5-2.9,6.9-6.3,9.6-10
		c7.8-10.8,9-30.1-1.3-37.6c-2.3-1.6-1.8,2.8-5.8,8.3c-3.5,4.8-8.8,8.6-10.5,11c-5.7,7.8-4.3,19.8,1.6,27.4
		c3.5-8.3,13.4-15.7,9.4-25.7C541.5,306.4,539.4,316.2,534.9,324.2z M454.8,461.6c0.5-11-8.2-21.6-18.5-25.2
		c1.8,10.1-3.1,23.3,6.9,30.3c-8.9-6.2-12.9-16.8-13.6-27.3c-1.5,4.9-2.7,10.3-3,15.5c-0.8,15.1,9.9,34.3,24.5,35.1
		c3.2,0.2,0-3.8,0.4-11.6C451.9,471.9,454.7,465,454.8,461.6L454.8,461.6L454.8,461.6z M502.6,195.1c-4.5,3.7-10.7,6-12.9,7.9
		c-7.5,6.1-9.2,18.1-5.4,26.9c5.5-7.1,16.9-11.8,15.6-22.4c1.2,9.4-3.2,18.3-9.6,24.9c4.1-1.9,8.3-4.3,11.8-7.2
		c10.3-8.5,16.4-26.8,8.3-36.7C508.6,186.4,507.9,190.8,502.6,195.1z"/>
	<path class="derevo" d="M296.5,204c-12,0-21.8,9.8-21.8,21.8c0,12,9.8,21.8,21.8,21.8c12,0,21.8-9.7,21.8-21.8
		C318.3,213.8,308.5,204,296.5,204z M354.8,757.9c-35.5-54.2-29.9-201.2-26.9-217.6c15.5-85.7,88-121.4,114.3-122.7
		c24.4-1.2,40.6,3.6,56.4,10.4c25.3,10.8-19.5-21.4-59.8-21.4c-91.3,0-43.8,42.3-43.8-48.6c0-30.1-9.2-60.3-27.8-84.6
		c7.8,18.8,15.3,39.1,13.9,59.6c-3.1,47.5-63.7,195.4-56.6,12.7c2.4-62.4,19.9-122.6,85.6-148.5c-53.6,2.4-98.9,52.4-113.2,101.3
		c-19.1-48.9-58.4-81-98.9-110.8c58.6,74.1,96.1,109.2,96.3,214.9c0.2,150.3-64.5,47-64.5-23.2c0-26.6,6.6-53.6,18.3-76.1
		c-21.6,18.1-42,48-41.7,87c0.7,92.8,42.1,29.8-70.6,38.4c-158.4,12,121.1-13.2,130.5,117.7l-16,211.5H354.8L354.8,757.9z
		 M170.8,414.9c8.8,0,16-7.2,16-16s-7.2-16-16-16c-8.9,0-16,7.2-16,16S161.9,414.9,170.8,414.9z M406.3,375.8
		c0,9.2,7.5,16.7,16.7,16.7c9.2,0,16.7-7.5,16.7-16.7s-7.5-16.7-16.7-16.7C413.8,359.1,406.3,366.5,406.3,375.8z"/>
</g>
</svg>