<?xml version="1.0" encoding="UTF-8"?>
<!DOCTYPE svg PUBLIC "-//W3C//DTD SVG 1.1//EN" "http://www.w3.org/Graphics/SVG/1.1/DTD/svg11.dtd">
<!-- Creator: CorelDRAW X8 -->
<svg xmlns="http://www.w3.org/2000/svg" xml:space="preserve" width="100%" height="100%" version="1.1" style="shape-rendering:geometricPrecision; text-rendering:geometricPrecision; image-rendering:optimizeQuality; fill-rule:evenodd; clip-rule:evenodd"
viewBox="0 0 5924 936"
 xmlns:xlink="http://www.w3.org/1999/xlink">
 <defs>
  <style type="text/css">
   <![CDATA[
    .fil0 {fill:#045C71;fill-rule:nonzero}
   ]]>
  </style>
 </defs>
 <g id="Layer_x0020_1">
  <metadata id="CorelCorpID_0Corel-Layer"/>
  <path class="fil0" d="M264 857c-47,0 -88,-7 -121,-20 -34,-13 -59,-30 -76,-50 -27,-31 -45,-68 -54,-109 -9,-42 -13,-90 -13,-143l0 -105c0,-54 5,-103 14,-146 10,-44 29,-80 58,-111 17,-18 43,-34 75,-46 33,-12 72,-18 117,-18l82 0 12 12 -12 38 -20 13 -62 0c-27,0 -50,3 -69,9 -19,6 -37,18 -53,37 -14,16 -26,42 -34,77 -9,35 -13,80 -13,135l0 105c0,56 4,101 12,135 9,35 20,60 35,77 16,18 34,31 52,37 19,6 42,10 70,10l62 0 20 12 12 39 -12 12 -82 0zm201 -685l-21 -13 -11 -38 11 -12 345 0 12 12 -12 38 -20 13 -104 0 0 677 -16 17 -71 -21 -8 -12 0 -661 -105 0zm757 363c0,47 -4,90 -11,130 -7,39 -20,73 -40,101 -19,28 -46,51 -81,67 -34,16 -78,24 -132,24l-22 0 -20 -13 -11 -39 11 -11 42 0c26,0 48,-3 68,-8 19,-6 36,-15 50,-29 13,-14 24,-34 32,-58 7,-25 13,-57 17,-96l-10 0c-19,0 -42,-2 -68,-6 -27,-5 -50,-12 -71,-21 -28,-13 -52,-28 -72,-46 -19,-17 -29,-37 -29,-59l0 -339 7 -11 71 -22 17 17 0 353c0,12 4,22 11,31 7,9 16,17 26,22 34,20 70,29 108,29l12 0 0 -435 17 -17 70 22 8 11 0 403zm348 -362c-26,0 -48,3 -66,10 -18,6 -35,18 -51,36 -15,16 -26,42 -35,77 -8,35 -12,80 -12,135l0 363 164 0 0 -621zm-217 746l-17 17 -70 -22 -8 -11 0 -109 52 0 0 -363c0,-55 5,-104 15,-147 10,-43 29,-80 57,-111 18,-18 43,-34 76,-46 33,-12 71,-18 116,-18l91 0 0 685 52 0 0 109 -7 11 -71 22 -17 -17 0 -62 -269 0 0 62zm518 -53l-71 -21 -8 -12 0 -717 16 -17 72 22 7 11 0 717 -16 17zm185 -397c0,13 4,24 13,34 8,10 20,19 33,26 14,7 30,12 47,16 18,4 35,6 52,6l24 0 0 -379c-28,0 -52,3 -71,10 -19,6 -37,19 -53,39 -14,16 -25,42 -33,76 -8,35 -12,79 -12,133l0 39zm-95 330c0,-16 3,-37 10,-61 7,-24 17,-48 32,-72 10,-16 22,-31 36,-45 14,-15 31,-27 49,-37 -16,-5 -32,-12 -48,-20 -15,-7 -28,-16 -40,-25 -12,-10 -21,-20 -28,-32 -8,-11 -11,-23 -11,-36l0 -41c0,-55 5,-105 15,-149 10,-43 30,-81 60,-111 17,-18 42,-33 74,-44 32,-11 71,-17 115,-17l95 0 0 724 -8 12 -70 21 -17 -17 0 -246 -12 0c-19,0 -37,6 -56,16 -19,11 -36,26 -51,44 -15,19 -27,40 -36,63 -9,23 -14,47 -14,73l0 34 -7 12 -71 21 -17 -17 0 -50zm849 -48c0,14 2,25 7,32 5,7 9,11 14,11l125 0c6,0 11,-4 16,-11 4,-7 7,-18 7,-32l0 -11c0,-19 -3,-39 -9,-59 -5,-20 -13,-39 -23,-58 -9,-20 -20,-38 -32,-55 -12,-18 -23,-34 -36,-48 -3,-3 -8,-8 -13,-12 -6,-5 -13,-7 -20,-7l-78 0 0 -52 78 0c7,0 13,-2 17,-5 5,-3 9,-8 14,-14 28,-35 52,-70 72,-102 20,-33 30,-67 30,-102l0 -11c0,-14 -3,-25 -8,-32 -5,-7 -10,-11 -16,-11l-123 0c-5,0 -10,4 -15,11 -5,7 -7,17 -7,32l0 2 -7 10 -71 22 -17 -17 0 -17c0,-20 4,-37 11,-51 8,-14 17,-25 29,-33 12,-7 25,-13 39,-17 14,-3 28,-5 41,-5l118 0c13,0 26,2 41,5 14,4 27,10 39,17 11,8 21,19 29,33 8,14 12,31 12,51l0 10c0,23 -4,45 -11,67 -8,21 -18,42 -30,63 -12,20 -26,40 -41,60 -15,20 -31,39 -46,58 15,20 31,41 46,62 15,21 29,43 41,65 12,22 22,45 30,68 7,22 11,45 11,68l0 15c0,20 -4,38 -11,51 -8,14 -17,24 -29,32 -12,8 -25,14 -39,17 -14,4 -28,6 -41,6l-120 0c-13,0 -27,-2 -41,-6 -13,-3 -26,-9 -38,-17 -12,-8 -21,-18 -29,-32 -7,-13 -11,-31 -11,-51l0 -17 17 -17 71 21 7 11 0 2zm638 -578c-27,0 -49,3 -67,10 -17,6 -34,18 -51,36 -14,16 -25,42 -34,77 -9,35 -13,80 -13,135l0 363 165 0 0 -621zm-217 746l-17 17 -71 -22 -7 -11 0 -109 52 0 0 -363c0,-55 5,-104 15,-147 9,-43 28,-80 57,-111 17,-18 43,-34 75,-46 33,-12 72,-18 117,-18l91 0 0 685 52 0 0 109 -7 11 -71 22 -17 -17 0 -62 -269 0 0 62zm417 -815l105 0c45,0 84,5 116,17 32,12 57,27 75,46 29,30 48,67 58,110 10,43 15,93 15,148l0 437 -105 0c-47,0 -88,-7 -122,-20 -34,-13 -59,-30 -75,-51 -27,-31 -44,-67 -53,-109 -9,-41 -14,-88 -14,-142l0 -436zm95 436c0,54 4,98 12,132 8,35 19,60 33,77 17,20 34,33 53,40 19,7 43,10 71,10l10 0 0 -374c0,-53 -4,-96 -11,-131 -7,-35 -19,-63 -37,-84 -27,-29 -67,-43 -121,-43l-10 0 0 373zm612 -110c0,-53 -3,-97 -11,-131 -8,-35 -19,-61 -33,-78 -17,-19 -34,-32 -53,-39 -19,-7 -43,-10 -71,-10l0 379 23 0c17,0 34,-2 51,-6 18,-4 33,-9 47,-16 14,-7 25,-16 34,-26 9,-10 13,-21 13,-34l0 -39zm-168 -321c48,0 89,7 123,20 33,14 58,31 74,52 27,31 44,67 53,108 9,42 14,89 14,141l0 41c0,21 -9,40 -27,57 -17,17 -38,31 -63,42 -25,11 -51,19 -79,25 -28,6 -52,8 -72,8l-23 0 0 246 -17 17 -71 -21 -7 -12 0 -724 95 0zm338 -5l105 0c45,0 83,5 116,17 32,12 57,27 75,46 29,30 48,67 58,110 10,43 15,93 15,148l0 437 -105 0c-48,0 -88,-7 -122,-20 -34,-13 -59,-30 -75,-51 -27,-31 -44,-67 -53,-109 -9,-41 -14,-88 -14,-142l0 -436zm95 436c0,54 4,98 12,132 8,35 19,60 33,77 17,20 34,33 53,40 19,7 43,10 71,10l10 0 0 -374c0,-53 -4,-96 -11,-131 -7,-35 -20,-63 -37,-84 -27,-29 -67,-43 -121,-43l-10 0 0 373zm598 -110c0,-54 -3,-99 -11,-134 -8,-34 -19,-60 -33,-76 -15,-18 -32,-30 -50,-37 -17,-7 -38,-11 -60,-11l0 379 24 0c16,0 31,-2 47,-6 16,-5 30,-10 42,-17 13,-8 23,-16 30,-26 8,-10 11,-21 11,-33l0 -39zm-154 173l0 191 93 0c23,0 41,-9 54,-27 13,-17 19,-38 19,-63 0,-12 -1,-24 -5,-36 -3,-13 -8,-23 -14,-33 -6,-10 -14,-17 -24,-23 -9,-6 -19,-9 -30,-9l-93 0zm-14 -494c45,0 83,6 116,17 32,11 57,26 74,45 30,31 49,68 59,111 10,43 15,93 15,148l0 41c0,19 -8,36 -23,51 -16,16 -35,30 -58,42 20,8 35,19 47,31 12,13 22,26 29,39 6,14 11,27 13,39 2,13 3,23 3,32 0,18 -3,36 -10,54 -7,18 -17,34 -31,48 -14,15 -31,26 -52,36 -21,9 -46,14 -73,14l-103 0 -10 9 -70 -21 -7 -12 0 -724 81 0zm350 79l0 -156 7 -12 68 -20 16 16 0 40 -29 132 -62 0zm261 281c0,13 4,24 12,34 9,10 20,19 34,26 14,7 30,12 47,16 18,4 35,6 52,6l23 0 0 -379c-27,0 -51,3 -70,10 -19,6 -37,19 -54,39 -14,16 -25,42 -33,76 -7,35 -11,79 -11,133l0 39zm-95 330c0,-16 3,-37 10,-61 6,-24 17,-48 31,-72 10,-16 22,-31 37,-45 14,-15 30,-27 49,-37 -17,-5 -33,-12 -48,-20 -15,-7 -29,-16 -40,-25 -12,-10 -22,-20 -29,-32 -7,-11 -10,-23 -10,-36l0 -41c0,-55 5,-105 15,-149 9,-43 29,-81 59,-111 17,-18 42,-33 75,-44 32,-11 70,-17 114,-17l95 0 0 724 -7 12 -71 21 -17 -17 0 -246 -11 0c-19,0 -38,6 -56,16 -19,11 -36,26 -51,44 -15,19 -27,40 -36,63 -10,23 -14,47 -14,73l0 34 -8 12 -70 21 -17 -17 0 -50z"/>
 </g>
</svg>
