<svg class="el-tree" xmlns="http://www.w3.org/2000/svg" xml:space="preserve" width="100%" height="100%" viewBox="0 0 14436 17254" xmlns:xlink="http://www.w3.org/1999/xlink">
	<g class="stem" fill="#045C71">
		<path id="stem1" d="M7191 3822c-291,0 -528,237 -528,528 0,292 237,528 528,528 291,0 528,-236 528,-528 0,-291 -237,-528 -528,-528z"/>
		<path id="stem2" d="M9853 7987c0,224 181,405 405,405 224,0 405,-181 405,-405 0,-224 -181,-405 -405,-405 -224,0 -405,181 -405,405z"/>
		<path id="stem3" d="M4141 8936c214,0 389,-174 389,-389 0,-215 -175,-389 -389,-389 -215,0 -389,174 -389,389 0,215 174,389 389,389z"/>
		<path id="stem4" d="M8603 17254c-862,-1315 -725,-4879 -653,-5277 377,-2079 2135,-2945 2771,-2975 591,-28 985,88 1367,251 613,263 -474,-518 -1450,-518 -2214,0 -1062,1027 -1062,-1179 0,-729 -222,-1463 -673,-2052 190,456 371,948 338,1445 -76,1152 -1544,4739 -1372,308 59,-1514 482,-2973 2075,-3602 -1300,57 -2399,1271 -2745,2456 -463,-1185 -1417,-1965 -2399,-2688 1422,1797 2331,2647 2335,5212 6,3646 -1565,1141 -1565,-562 0,-646 159,-1300 444,-1846 -525,439 -1018,1165 -1011,2111 17,2251 1020,723 -1711,931 -3841,291 2936,-320 3165,2855l-387 5130 2533 0z"/>
	</g>
  <path class="leaves" fill="#6CC0AD" d="M5214 3388c-83,-398 74,-941 -335,-1198 176,109 199,125 0,0 46,28 90,60 130,95 283,239 430,603 470,966 50,-199 85,-410 86,-616 -4,-606 -471,-1345 -1051,-1345 -37,0 -52,13 -54,39 5,70 62,205 62,405 0,4 -1,7 -1,11 0,2 1,5 1,8 0,262 -91,537 -95,675 4,437 372,838 787,960zm4111 -87c298,-283 849,-409 864,-900 -12,435 -277,805 -612,1055 200,-59 404,-137 584,-243 524,-308 930,-1090 634,-1593 -64,-109 -128,85 -395,242 -232,136 -524,197 -640,265 -380,223 -542,751 -435,1174zm-3129 -719c-101,187 -273,347 -323,440 -165,306 -59,728 187,969 85,-312 404,-622 214,-959 170,298 143,655 19,961 111,-121 216,-257 294,-402 228,-422 181,-1115 -223,-1334 -88,-47 -52,110 -168,325zm-3080 2083c-18,99 120,16 361,58 208,38 414,151 519,169 342,61 709,-171 862,-480 -323,16 -718,-190 -978,97 230,-255 578,-341 907,-319 -150,-67 -312,-125 -474,-154 -472,-84 -1116,177 -1197,629zm-380 -1731c125,170 196,395 259,480 206,280 633,365 956,247 -245,-211 -389,-633 -775,-605 342,-26 653,152 876,395 -62,-152 -139,-306 -237,-438 -283,-387 -930,-642 -1300,-371 -81,60 76,95 221,292zm-1595 2824c-14,357 306,700 677,813 -70,-327 98,-758 -265,-984 323,200 474,543 502,881 52,-162 91,-335 97,-504 19,-493 -376,-1114 -896,-1134 -114,-5 1,124 -8,376 -9,217 -103,443 -107,552zm-915 1405c110,188 153,429 208,523 181,308 636,423 1009,318 -236,-237 -327,-691 -754,-685 379,-6 692,201 898,470 -44,-164 -105,-331 -190,-477 -250,-424 -919,-733 -1367,-470 -99,58 68,104 196,321zm1671 1765c-109,-131 -235,-256 -374,-352 -405,-280 -1142,-280 -1438,148 -65,94 106,66 313,209 179,124 319,324 409,386 294,203 755,117 1049,-136 -314,-116 -587,-489 -972,-304 341,-165 712,-109 1013,49zm1258 77c35,-166 57,-342 47,-511 -28,-492 -483,-1072 -1002,-1042 -114,7 14,124 28,375 13,218 -59,452 -52,560 21,357 372,667 752,744 -101,-319 24,-764 -359,-954 341,168 525,494 586,828zm-288 1150c-209,446 -87,1173 384,1394 103,48 47,-116 154,-343 93,-198 267,-369 314,-467 151,-324 -10,-764 -307,-1013 -63,329 -386,660 -140,1009 -219,-309 -225,-684 -119,-1007 -111,129 -214,274 -286,427zm-608 -401c-170,11 -345,38 -505,93 -466,160 -902,754 -733,1246 38,108 116,-47 354,-129 206,-71 451,-65 553,-100 338,-116 542,-538 513,-925 -280,184 -742,183 -821,603 69,-373 334,-639 639,-788zm2932 -3312c118,-114 231,-244 318,-384 252,-407 247,-1103 -143,-1344 -86,-53 -60,106 -188,314 -111,180 -293,330 -348,420 -183,296 -102,723 129,979 104,-307 441,-598 271,-945 151,307 103,663 -39,960zm-567 935c-196,-243 -216,-676 -638,-708 374,28 651,248 813,519 -19,-158 -53,-319 -116,-463 -181,-420 -792,-767 -1273,-559 -106,45 52,103 144,317 80,186 86,415 126,508 131,304 561,452 944,386zm1644 -375c-131,117 -311,195 -376,254 -215,192 -254,548 -134,802 156,-219 491,-373 441,-686 45,277 -78,547 -262,751 120,-64 241,-141 343,-233 297,-265 460,-816 211,-1094 -55,-61 -72,70 -223,206zm2464 -3186c-33,-322 152,-726 -147,-971 266,216 370,559 365,889 59,-153 108,-318 129,-482 59,-475 -235,-1105 -690,-1162 -100,-12 -10,121 -40,363 -26,211 -129,423 -142,527 -43,346 209,700 525,836zm1318 1455c203,-434 118,-1124 -298,-1319 -91,-42 -46,112 -150,334 -89,192 -252,361 -297,457 -148,315 -18,730 241,957 67,-316 368,-644 160,-970 186,289 179,647 72,959 104,-127 202,-269 272,-418zm556 208c-66,-75 -86,85 -268,249 -158,141 -374,234 -452,304 -259,233 -302,665 -153,975 186,-265 592,-448 526,-830 59,338 -87,665 -307,911 145,-77 290,-169 413,-279 357,-320 548,-988 241,-1330zm1800 -188c207,-248 627,-397 594,-783 30,342 -144,656 -383,882 151,-64 303,-144 435,-243 382,-289 629,-938 352,-1305 -60,-80 -93,78 -288,225 -169,128 -392,202 -477,265 -277,210 -356,638 -233,959zm775 2400c239,-219 674,-312 692,-698 -15,343 -228,631 -495,823 157,-43 319,-102 463,-183 417,-236 747,-847 521,-1247 -49,-88 -102,64 -315,185 -185,104 -416,148 -507,200 -303,171 -438,585 -359,920zm828 548c6,-100 -121,-1 -365,-16 -212,-12 -430,-101 -535,-107 -348,-21 -686,253 -801,578 319,-55 735,104 960,-211 -199,280 -534,406 -863,423 156,49 324,87 488,97 479,29 1089,-305 1116,-764zm-2207 323c132,-98 261,-212 365,-340 303,-371 388,-1061 33,-1351 -79,-63 -73,97 -227,287 -134,164 -333,289 -400,371 -220,270 -195,704 1,987 142,-290 515,-535 390,-902 111,325 17,671 -162,948zm-127 -2910c91,267 14,552 -133,779 108,-81 214,-174 300,-279 249,-305 319,-872 27,-1111 -65,-52 -60,80 -187,236 -110,135 -274,238 -329,305 -180,222 -160,579 1,812 117,-239 423,-440 321,-742zm-466 3926c65,151 145,303 244,435 289,382 940,628 1306,350 80,-61 -78,-93 -226,-288 -128,-169 -202,-392 -266,-476 -210,-277 -638,-356 -959,-233 248,208 398,627 784,593 -342,31 -656,-142 -883,-381zm534 -6729c-101,328 -379,553 -686,672 164,-2 335,-19 494,-61 463,-124 936,-633 818,-1077 -26,-97 -116,37 -352,100 -205,55 -439,40 -542,67 -336,90 -570,456 -577,801 286,-152 731,-133 845,-502zm-1182 2425c146,-76 291,-168 414,-277 358,-319 551,-987 246,-1330 -67,-75 -87,85 -269,248 -158,141 -375,233 -454,304 -259,231 -304,664 -155,974 187,-264 593,-447 529,-828 57,338 -90,664 -311,909zm-3124 -2753c77,-281 364,-561 193,-865 153,269 128,591 17,867 99,-110 194,-232 265,-363 205,-380 163,-1005 -201,-1201 -80,-43 -47,98 -152,292 -90,168 -245,313 -290,397 -149,276 -53,656 168,873zm2346 -1400c22,309 -139,588 -358,789 137,-56 275,-125 395,-213 349,-254 581,-836 338,-1170 -54,-73 -85,68 -263,198 -155,113 -357,176 -434,233 -253,184 -331,568 -225,860 190,-221 571,-349 547,-697zm-2736 -527c57,274 -53,546 -224,753 116,-67 232,-147 329,-240 281,-272 417,-823 157,-1093 -8,-8 -16,-13 -23,-14l-6 0c-37,6 -66,113 -182,225 -125,120 -299,202 -361,262 -204,197 -226,552 -95,801 144,-222 469,-384 405,-694zm-1465 956c87,270 397,445 678,436 -137,-227 -141,-590 -447,-667 272,67 468,285 579,530 -9,-134 -30,-273 -72,-401 -121,-371 -557,-735 -914,-619 -78,26 35,93 97,283 54,164 52,356 79,438zm-3884 2275c113,132 185,310 241,375 185,216 537,258 794,142 -214,-156 -357,-491 -669,-444 277,-42 541,83 738,267 -60,-120 -133,-240 -220,-342 -255,-297 -797,-465 -1082,-221 -62,53 68,72 198,223zm6695 -2894c73,223 328,367 560,360 -113,-187 -116,-487 -368,-551 224,56 386,236 477,438 -7,-110 -25,-225 -59,-331 -100,-307 -460,-606 -754,-511 -65,21 29,77 80,233 44,136 42,295 64,362zm-5254 993c121,77 220,201 280,239 198,125 486,75 661,-79 -206,-72 -399,-302 -635,-190 209,-100 448,-64 647,34 -76,-80 -162,-158 -256,-218 -272,-173 -741,-176 -907,85 -36,57 71,41 210,129zm4735 1736c33,-87 61,-181 72,-273 31,-270 -138,-626 -397,-657 -56,-6 -4,69 -21,206 -14,120 -71,240 -78,300 -23,196 121,396 301,472 -20,-182 83,-413 -87,-551 152,122 212,316 210,503zm1018 4286c-17,-109 -44,-222 -88,-324 -126,-297 -510,-565 -795,-444 -62,26 35,74 100,225 56,132 67,290 95,355 92,216 358,338 589,310 -129,-176 -158,-475 -415,-517 229,37 405,202 514,395zm-98 -1369c35,-104 62,-217 71,-328 23,-322 -198,-735 -506,-758 -68,-5 -2,82 -14,246 -10,143 -72,289 -77,360 -16,234 165,463 383,544 -34,-216 76,-495 -134,-649 187,136 269,364 277,585zm-2365 3016c71,-85 137,-181 185,-281 138,-292 82,-757 -197,-890 -61,-29 -32,76 -102,225 -61,129 -172,242 -202,307 -101,212 -15,492 160,646 46,-213 250,-434 110,-654 125,195 119,437 46,647zm-3249 -2870c-87,-311 -433,-626 -732,-543 -65,18 26,78 70,237 39,137 30,295 49,364 63,226 312,381 544,383 -104,-191 -95,-491 -344,-566 221,66 375,252 458,458 -3,-110 -15,-226 -45,-333zm-170 -1089c172,124 426,108 609,-2 -179,-109 -334,-338 -567,-264 204,-65 168,-69 0,0 181,-74 380,-49 554,27 -44,-53 -92,-103 -143,-147 -145,-123 -365,-195 -563,-187 -145,13 -277,69 -356,176 12,29 100,45 199,129 29,25 57,53 82,82 78,74 142,155 185,186zm1167 4783c-121,299 -38,760 248,876 63,26 27,-77 89,-230 54,-132 157,-252 183,-318 88,-218 -14,-492 -197,-636 -33,216 -224,448 -72,659 -136,-187 -143,-429 -84,-643 -64,90 -125,189 -167,292zm6856 -2742c73,-83 142,-176 193,-275 148,-287 107,-754 -168,-896 -60,-30 -33,75 -109,221 -65,127 -179,238 -212,301 -107,209 -30,491 139,651 53,-212 264,-425 131,-650 119,199 105,440 26,648zm-1459 2073c-88,67 -175,145 -244,231 -201,252 -255,718 -13,911 53,43 47,-66 150,-194 90,-112 223,-197 268,-253 146,-183 127,-475 -7,-666 -94,197 -343,365 -258,611 -76,-218 -15,-452 104,-640zm3397 -3013c85,-71 168,-153 233,-243 189,-262 219,-729 -32,-911 -55,-40 -44,69 -141,202 -84,116 -213,208 -254,266 -138,190 -104,481 39,664 85,-201 325,-381 228,-623 87,215 37,451 -73,645zm-1941 3334c13,-267 -199,-524 -449,-611 44,244 -76,565 167,736 -216,-151 -314,-408 -329,-661 -37,120 -65,250 -72,376 -19,367 241,833 593,852 77,4 0,-93 10,-281 8,-162 76,-330 80,-411zm1159 -6463c-110,90 -259,146 -313,192 -181,149 -223,439 -131,652 133,-173 411,-285 378,-544 30,229 -78,445 -234,604 100,-47 201,-105 287,-175 249,-205 397,-650 201,-889 -43,-52 -61,55 -188,160z"/>



</svg>
