<!-- Creator: CorelDRAW X8 -->
<svg xmlns="http://www.w3.org/2000/svg" xml:space="preserve" width="100%" height="100%" version="1.1" style="shape-rendering:geometricPrecision; text-rendering:geometricPrecision; image-rendering:optimizeQuality; fill-rule:evenodd; clip-rule:evenodd"
viewBox="0 0 37300 17254"
 xmlns:xlink="http://www.w3.org/1999/xlink">
 <defs>
  <style type="text/css">
   <![CDATA[
    .fil2 {fill:#045C71}
    .fil0 {fill:#6CC0AD;fill-rule:nonzero}
    .fil1 {fill:#045C71;fill-rule:nonzero}
   ]]>
  </style>
 </defs>
 <g id="Layer_x0020_1">
  <metadata id="CorelCorpID_0Corel-Layer"/>
  <path class="fil0" d="M25937 3388c-83,-398 74,-941 -335,-1198 176,109 199,125 0,0 47,28 90,60 131,95 283,239 429,603 469,966 50,-199 86,-410 87,-616 -5,-606 -472,-1345 -1052,-1345 -37,0 -51,13 -54,39 6,70 62,205 62,405 0,4 0,7 0,11 0,2 0,5 0,8 0,262 -91,537 -95,675 4,437 372,838 787,960zm4112 -87c298,-283 848,-409 863,-900 -12,435 -277,805 -611,1055 199,-59 403,-137 583,-243 524,-308 930,-1090 635,-1593 -65,-109 -128,85 -396,242 -232,136 -524,197 -639,265 -380,223 -542,751 -435,1174zm-3130 -719c-100,187 -272,347 -322,440 -165,306 -59,728 186,969 86,-312 405,-622 214,-959 170,298 143,655 19,961 111,-121 216,-257 295,-402 227,-422 181,-1115 -223,-1334 -89,-47 -53,110 -169,325zm-3080 2083c-17,99 120,16 361,58 209,38 415,151 519,169 342,61 710,-171 862,-480 -323,16 -718,-190 -978,97 230,-255 578,-341 907,-319 -150,-67 -312,-125 -474,-154 -472,-84 -1116,177 -1197,629zm-380 -1731c126,170 197,395 260,480 205,280 632,365 955,247 -245,-211 -389,-633 -775,-605 342,-26 654,152 877,395 -62,-152 -140,-306 -237,-438 -284,-387 -931,-642 -1301,-371 -81,60 77,95 221,292zm-1595 2824c-14,357 306,700 677,813 -70,-327 98,-758 -265,-984 323,200 475,543 503,881 51,-162 90,-335 97,-504 19,-493 -377,-1114 -897,-1134 -114,-5 2,124 -8,376 -8,217 -103,443 -107,552zm-915 1405c111,188 153,429 208,523 182,308 636,423 1009,318 -235,-237 -327,-691 -754,-685 379,-6 692,201 899,470 -44,-164 -105,-331 -191,-477 -250,-424 -918,-733 -1367,-470 -98,58 69,104 196,321zm1671 1765c-109,-131 -235,-256 -374,-352 -405,-280 -1142,-280 -1437,148 -65,94 106,66 312,209 180,124 320,324 409,386 295,203 755,117 1049,-136 -313,-116 -587,-489 -972,-304 342,-165 712,-109 1013,49zm1258 77c36,-166 58,-342 48,-511 -29,-492 -483,-1072 -1003,-1042 -114,7 14,124 29,375 12,218 -59,452 -53,560 21,357 372,667 753,744 -102,-319 24,-764 -359,-954 340,168 524,494 585,828zm-288 1150c-209,446 -86,1173 384,1394 104,48 47,-116 154,-343 93,-198 268,-369 314,-467 151,-324 -9,-764 -307,-1013 -63,329 -385,660 -139,1009 -219,-309 -226,-684 -120,-1007 -111,129 -214,274 -286,427zm-608 -401c-169,11 -345,38 -505,93 -466,160 -901,754 -732,1246 37,108 115,-47 353,-129 206,-71 451,-65 554,-100 338,-116 541,-538 512,-925 -280,184 -742,183 -821,603 69,-373 334,-639 639,-788zm2933 -3312c118,-114 231,-244 317,-384 252,-407 247,-1103 -143,-1344 -86,-53 -59,106 -188,314 -111,180 -292,330 -348,420 -183,296 -102,723 129,979 104,-307 441,-598 271,-945 151,307 103,663 -38,960zm-567 935c-196,-243 -217,-676 -638,-708 374,28 650,248 812,519 -19,-158 -53,-319 -115,-463 -181,-420 -792,-767 -1274,-559 -105,45 52,103 144,317 81,186 86,415 126,508 132,304 561,452 945,386zm1643 -375c-131,117 -310,195 -376,254 -215,192 -254,548 -134,802 156,-219 492,-373 441,-686 45,277 -78,547 -262,751 121,-64 241,-141 343,-233 297,-265 461,-816 211,-1094 -54,-61 -71,70 -223,206zm2464 -3186c-33,-322 152,-726 -147,-971 266,216 370,559 365,889 60,-153 109,-318 129,-482 59,-475 -235,-1105 -690,-1162 -100,-12 -10,121 -40,363 -26,211 -128,423 -141,527 -43,346 208,700 524,836zm1318 1455c203,-434 118,-1124 -297,-1319 -91,-42 -46,112 -150,334 -90,192 -253,361 -298,457 -147,315 -18,730 241,957 67,-316 369,-644 160,-970 186,289 179,647 73,959 103,-127 201,-269 271,-418zm557 208c-67,-75 -86,85 -268,249 -158,141 -374,234 -453,304 -259,233 -302,665 -153,975 186,-265 592,-448 527,-830 58,338 -88,665 -308,911 145,-77 290,-169 413,-279 357,-320 549,-988 242,-1330zm1799 -188c207,-248 627,-397 594,-783 30,342 -143,656 -383,882 151,-64 303,-144 435,-243 383,-289 630,-938 353,-1305 -61,-80 -93,78 -289,225 -169,128 -392,202 -476,265 -278,210 -357,638 -234,959zm775 2400c239,-219 675,-312 693,-698 -15,343 -229,631 -496,823 158,-43 320,-102 463,-183 417,-236 747,-847 522,-1247 -50,-88 -103,64 -316,185 -184,104 -415,148 -507,200 -303,171 -438,585 -359,920zm828 548c6,-100 -121,-1 -365,-16 -212,-12 -429,-101 -535,-107 -347,-21 -685,253 -801,578 320,-55 736,104 961,-211 -200,280 -535,406 -864,423 157,49 324,87 489,97 478,29 1088,-305 1115,-764zm-2206 323c131,-98 260,-212 364,-340 303,-371 389,-1061 33,-1351 -78,-63 -72,97 -227,287 -134,164 -333,289 -400,371 -220,270 -194,704 1,987 143,-290 515,-535 391,-902 111,325 16,671 -162,948zm-127 -2910c91,267 13,552 -134,779 108,-81 214,-174 300,-279 249,-305 319,-872 27,-1111 -65,-52 -60,80 -187,236 -110,135 -273,238 -328,305 -181,222 -161,579 0,812 118,-239 423,-440 322,-742zm-466 3926c64,151 144,303 244,435 289,382 939,628 1305,350 80,-61 -78,-93 -225,-288 -128,-169 -203,-392 -267,-476 -210,-277 -637,-356 -959,-233 249,208 398,627 784,593 -342,31 -656,-142 -882,-381zm534 -6729c-101,328 -380,553 -687,672 164,-2 335,-19 495,-61 462,-124 935,-633 817,-1077 -26,-97 -115,37 -351,100 -205,55 -440,40 -542,67 -336,90 -571,456 -577,801 285,-152 730,-133 845,-502zm-1182 2425c145,-76 291,-168 414,-277 357,-319 550,-987 245,-1330 -67,-75 -87,85 -269,248 -158,141 -375,233 -454,304 -259,231 -303,664 -155,974 187,-264 593,-447 529,-828 58,338 -90,664 -310,909zm-3125 -2753c77,-281 365,-561 193,-865 153,269 128,591 17,867 100,-110 195,-232 265,-363 205,-380 164,-1005 -201,-1201 -80,-43 -47,98 -151,292 -91,168 -246,313 -291,397 -149,276 -53,656 168,873zm2346 -1400c22,309 -139,588 -358,789 137,-56 276,-125 396,-213 348,-254 580,-836 337,-1170 -53,-73 -85,68 -263,198 -154,113 -357,176 -433,233 -254,184 -332,568 -225,860 190,-221 570,-349 546,-697zm-2736 -527c58,274 -52,546 -224,753 116,-67 232,-147 329,-240 281,-272 418,-823 157,-1093 -8,-8 -15,-13 -22,-14l-7 0c-37,6 -66,113 -182,225 -125,120 -298,202 -360,262 -205,197 -227,552 -96,801 144,-222 469,-384 405,-694zm-1465 956c88,270 397,445 678,436 -137,-227 -140,-590 -447,-667 272,67 468,285 579,530 -9,-134 -30,-273 -72,-401 -121,-371 -557,-735 -914,-619 -78,26 36,93 98,283 53,164 51,356 78,438zm-3883 2275c112,132 184,310 240,375 185,216 538,258 794,142 -213,-156 -356,-491 -669,-444 277,-42 542,83 739,267 -60,-120 -133,-240 -221,-342 -254,-297 -797,-465 -1082,-221 -62,53 69,72 199,223zm6695 -2894c73,223 328,367 560,360 -113,-187 -117,-487 -369,-551 224,56 386,236 478,438 -8,-110 -25,-225 -60,-331 -100,-307 -460,-606 -754,-511 -64,21 29,77 80,233 44,136 43,295 65,362zm-5255 993c121,77 220,201 281,239 197,125 486,75 660,-79 -206,-72 -399,-302 -634,-190 208,-100 447,-64 647,34 -76,-80 -163,-158 -256,-218 -273,-173 -741,-176 -907,85 -37,57 71,41 209,129zm4736 1736c33,-87 60,-181 71,-273 32,-270 -138,-626 -396,-657 -57,-6 -5,69 -21,206 -15,120 -72,240 -79,300 -23,196 122,396 302,472 -21,-182 83,-413 -88,-551 152,122 212,316 211,503zm1017 4286c-17,-109 -44,-222 -87,-324 -126,-297 -511,-565 -796,-444 -62,26 36,74 100,225 56,132 67,290 96,355 91,216 358,338 588,310 -128,-176 -157,-475 -414,-517 228,37 405,202 513,395zm-97 -1369c35,-104 62,-217 70,-328 23,-322 -197,-735 -506,-758 -67,-5 -2,82 -13,246 -11,143 -73,289 -77,360 -17,234 165,463 383,544 -35,-216 76,-495 -134,-649 186,136 268,364 277,585zm-2365 3016c70,-85 136,-181 184,-281 138,-292 83,-757 -197,-890 -61,-29 -31,76 -102,225 -61,129 -172,242 -202,307 -100,212 -14,492 160,646 46,-213 250,-434 111,-654 124,195 118,437 46,647zm-3249 -2870c-87,-311 -434,-626 -732,-543 -66,18 26,78 70,237 38,137 29,295 49,364 63,226 311,381 544,383 -105,-191 -95,-491 -345,-566 222,66 376,252 458,458 -3,-110 -15,-226 -44,-333zm-171 -1089c172,124 427,108 609,-2 -179,-109 -334,-338 -567,-264 205,-65 169,-69 0,0 182,-74 380,-49 554,27 -44,-53 -92,-103 -143,-147 -145,-123 -365,-195 -562,-187 -146,13 -278,69 -356,176 11,29 99,45 198,129 30,25 57,53 83,82 78,74 141,155 184,186zm1167 4783c-121,299 -38,760 249,876 63,26 26,-77 89,-230 53,-132 157,-252 183,-318 88,-218 -14,-492 -197,-636 -34,216 -225,448 -73,659 -135,-187 -143,-429 -84,-643 -64,90 -125,189 -167,292zm6856 -2742c73,-83 142,-176 193,-275 148,-287 108,-754 -168,-896 -60,-30 -33,75 -109,221 -65,127 -179,238 -212,301 -106,209 -29,491 139,651 54,-212 265,-425 132,-650 118,199 104,440 25,648zm-1459 2073c-88,67 -174,145 -244,231 -201,252 -254,718 -13,911 53,43 48,-66 151,-194 89,-112 223,-197 267,-253 146,-183 127,-475 -7,-666 -94,197 -343,365 -258,611 -76,-218 -15,-452 104,-640zm3398 -3013c85,-71 167,-153 232,-243 189,-262 219,-729 -31,-911 -55,-40 -45,69 -141,202 -84,116 -213,208 -255,266 -137,190 -103,481 40,664 84,-201 324,-381 227,-623 87,215 37,451 -72,645zm-1942 3334c13,-267 -199,-524 -449,-611 44,244 -76,565 167,736 -215,-151 -314,-408 -329,-661 -36,120 -65,250 -72,376 -19,367 241,833 593,852 77,4 0,-93 10,-281 9,-162 76,-330 80,-411zm1160 -6463c-111,90 -259,146 -314,192 -181,149 -222,439 -131,652 133,-173 411,-285 378,-544 30,229 -78,445 -233,604 100,-47 201,-105 286,-175 250,-205 398,-650 201,-889 -43,-52 -60,55 -187,160z"/>
  <g id="_2470642386272">
   <path class="fil1" d="M27914 3822c-291,0 -527,237 -527,528 0,292 236,528 527,528 292,0 528,-236 528,-528 0,-291 -236,-528 -528,-528z"/>
   <path class="fil1" d="M30576 7987c0,224 182,405 406,405 223,0 405,-181 405,-405 0,-224 -182,-405 -405,-405 -224,0 -406,181 -406,405z"/>
   <path class="fil1" d="M24864 8936c215,0 389,-174 389,-389 0,-215 -174,-389 -389,-389 -215,0 -389,174 -389,389 0,215 174,389 389,389z"/>
   <path class="fil1" d="M29220 16232c-861,-1314 -619,-3857 -547,-4255 377,-2079 2136,-2945 2771,-2975 592,-29 986,88 1367,251 613,263 -473,-518 -1450,-518 -2214,0 -1062,1027 -1062,-1179 0,-729 -222,-1463 -672,-2052 190,456 370,948 337,1445 -76,1152 -1544,4739 -1372,307 59,-1513 483,-2972 2075,-3601 -1300,57 -2398,1271 -2745,2456 -462,-1185 -1416,-1965 -2398,-2688 1422,1797 2330,2647 2335,5212 6,3646 -1565,1141 -1565,-562 0,-646 159,-1300 443,-1846 -525,438 -1018,1165 -1011,2111 17,2251 1020,723 -1711,931 -3840,291 2937,-320 3166,2855 13,181 362,2793 -388,4426 277,-1 1186,-340 2427,-318z"/>
  </g>
  <path class="fil2" d="M0 17254c12433,0 24867,0 37300,0 0,-805 0,-975 0,-1780 -7546,-1023 -9199,1200 -18650,-635 -6040,-1172 -10174,2460 -18650,0 0,805 0,1610 0,2415z"/>
 </g>
</svg>
