<svg xmlns="http://www.w3.org/2000/svg" width="100%" height="100%" version="1.1" style="shape-rendering:geometricPrecision; text-rendering:geometricPrecision; image-rendering:optimizeQuality; fill-rule:evenodd; clip-rule:evenodd" viewBox="0 0 2062 2062" xmlns:xlink="http://www.w3.org/1999/xlink">
 <defs>
  <style>
    .fil0 {fill:#FEFEFE;fill-rule:nonzero}
  </style>
 </defs>
  <path class="fil0" d="M1031 0c186,0 357,46 515,139 158,93 284,219 377,376 93,158 139,330 139,516 0,185 -46,357 -139,515 -93,158 -219,284 -377,377 -158,92 -329,139 -515,139 -186,0 -358,-47 -516,-139 -157,-93 -283,-219 -376,-377 -93,-158 -139,-330 -139,-515 0,-186 46,-358 139,-516 93,-157 219,-283 376,-376 158,-93 330,-139 516,-139zm0 399c-100,0 -186,36 -258,108 -72,72 -108,158 -108,258 0,99 36,185 108,258 72,72 158,108 258,108 100,0 186,-36 258,-108 72,-73 108,-159 108,-258 0,-100 -36,-186 -108,-258 -72,-72 -158,-108 -258,-108zm0 1430c119,0 232,-25 339,-75 106,-50 197,-119 272,-208 -41,-75 -98,-135 -171,-181 -72,-45 -152,-68 -240,-68 -9,0 -19,1 -30,4 -58,19 -115,29 -170,29 -56,0 -112,-10 -170,-29 -11,-3 -21,-4 -30,-4 -88,0 -169,23 -241,68 -72,46 -129,106 -170,181 75,89 165,158 272,208 107,50 220,75 339,75z"/>
</svg>
