<?xml version="1.0" encoding="UTF-8"?>
<!DOCTYPE svg PUBLIC "-//W3C//DTD SVG 1.1//EN" "http://www.w3.org/Graphics/SVG/1.1/DTD/svg11.dtd">
<!-- Creator: CorelDRAW X8 -->
<svg xmlns="http://www.w3.org/2000/svg" xml:space="preserve" width="100%" height="100%" version="1.1" style="shape-rendering:geometricPrecision; text-rendering:geometricPrecision; image-rendering:optimizeQuality; fill-rule:evenodd; clip-rule:evenodd"
viewBox="0 0 3431 3431"
 xmlns:xlink="http://www.w3.org/1999/xlink">
 <defs>
  <style type="text/css">
   <![CDATA[
    .fil0 {fill:#FEFEFE}
    .fil1 {fill:#045C71}
   ]]>
  </style>
 </defs>
 <g id="Layer_x0020_1">
  <metadata id="CorelCorpID_0Corel-Layer"/>
  <circle class="fil0" cx="1716" cy="1716" r="1716"/>
  <path class="fil1" d="M2407 2734l-1382 0 0 -1676 252 0 0 82c0,40 30,70 70,70l735 0c40,0 70,-30 70,-70l0 -82 255 0 0 1676zm-756 -435l473 0c33,0 61,27 61,60l0 0c0,33 -28,61 -61,61l-473 0c-33,0 -61,-28 -61,-61l0 0c0,-33 28,-60 61,-60zm-282 -54c63,0 115,51 115,114 0,64 -52,115 -115,115 -63,0 -115,-51 -115,-115 0,-63 52,-114 115,-114zm282 -364l473 0c33,0 61,27 61,60l0 0c0,33 -28,60 -61,60l-473 0c-33,0 -61,-27 -61,-60l0 0c0,-33 28,-60 61,-60zm-282 -55c63,0 115,52 115,115 0,64 -52,115 -115,115 -63,0 -115,-51 -115,-115 0,-63 52,-115 115,-115zm0 -418c63,0 115,52 115,115 0,63 -52,115 -115,115 -63,0 -115,-52 -115,-115 0,-63 52,-115 115,-115zm282 55l473 0c33,0 61,27 61,60l0 0c0,33 -28,60 -61,60l-473 0c-33,0 -61,-27 -61,-60l0 0c0,-33 28,-60 61,-60zm-234 -568l123 0c33,0 61,-23 68,-54 10,-42 47,-86 105,-86 52,0 94,35 105,84 7,33 35,56 68,56l126 0 0 175 -595 0 0 -175zm1013 23l-278 0 0 -93c0,-40 -30,-70 -70,-70l-147 0c-40,-84 -126,-140 -222,-140 -95,0 -180,56 -222,140l-144 0c-40,0 -70,30 -70,70l0 93 -276 0c-65,0 -117,52 -117,117l0 1725c0,65 52,116 117,116l1429 0c65,0 117,-51 117,-116l0 -1725c0,-65 -52,-117 -117,-117z"/>
 </g>
</svg>
